<mxfile host="app.diagrams.net" modified="2023-10-02T15:52:13.759Z" agent="Mozilla/5.0 (Windows NT 6.1; Win64; x64) AppleWebKit/537.36 (KHTML, like Gecko) Chrome/109.0.0.0 Safari/537.36" etag="lFeQD4RczCQfmqLOl1fI" version="22.0.0" type="github">
  <diagram id="C5RBs43oDa-KdzZeNtuy" name="Page-1">
    <mxGraphModel dx="954" dy="616" grid="1" gridSize="10" guides="1" tooltips="1" connect="1" arrows="1" fold="1" page="1" pageScale="1" pageWidth="827" pageHeight="1169" math="0" shadow="0">
      <root>
        <mxCell id="WIyWlLk6GJQsqaUBKTNV-0" />
        <mxCell id="WIyWlLk6GJQsqaUBKTNV-1" parent="WIyWlLk6GJQsqaUBKTNV-0" />
        <mxCell id="Ev4r6tBixr2I4QaoS0hP-0" value="Berço de Atração" style="whiteSpace=wrap;html=1;align=center;" vertex="1" parent="WIyWlLk6GJQsqaUBKTNV-1">
          <mxGeometry x="160" y="70" width="100" height="40" as="geometry" />
        </mxCell>
        <mxCell id="Ev4r6tBixr2I4QaoS0hP-1" value="Recursos portuários" style="whiteSpace=wrap;html=1;align=center;" vertex="1" parent="WIyWlLk6GJQsqaUBKTNV-1">
          <mxGeometry x="650" y="70" width="100" height="40" as="geometry" />
        </mxCell>
        <mxCell id="Ev4r6tBixr2I4QaoS0hP-2" value="Tripulantes" style="whiteSpace=wrap;html=1;align=center;" vertex="1" parent="WIyWlLk6GJQsqaUBKTNV-1">
          <mxGeometry x="660" y="280" width="100" height="40" as="geometry" />
        </mxCell>
        <mxCell id="Ev4r6tBixr2I4QaoS0hP-3" value="Embarcação" style="whiteSpace=wrap;html=1;align=center;" vertex="1" parent="WIyWlLk6GJQsqaUBKTNV-1">
          <mxGeometry x="430" y="70" width="100" height="40" as="geometry" />
        </mxCell>
        <mxCell id="Ev4r6tBixr2I4QaoS0hP-4" value="Empregados" style="whiteSpace=wrap;html=1;align=center;" vertex="1" parent="WIyWlLk6GJQsqaUBKTNV-1">
          <mxGeometry x="570" y="190" width="100" height="40" as="geometry" />
        </mxCell>
        <mxCell id="Ev4r6tBixr2I4QaoS0hP-5" value="C.I." style="ellipse;whiteSpace=wrap;html=1;align=center;fontStyle=4;" vertex="1" parent="WIyWlLk6GJQsqaUBKTNV-1">
          <mxGeometry x="60" y="30" width="100" height="40" as="geometry" />
        </mxCell>
        <mxCell id="Ev4r6tBixr2I4QaoS0hP-7" value="" style="endArrow=none;html=1;rounded=0;exitX=1;exitY=1;exitDx=0;exitDy=0;entryX=0;entryY=0;entryDx=0;entryDy=0;" edge="1" parent="WIyWlLk6GJQsqaUBKTNV-1" source="Ev4r6tBixr2I4QaoS0hP-5" target="Ev4r6tBixr2I4QaoS0hP-0">
          <mxGeometry relative="1" as="geometry">
            <mxPoint x="330" y="20" as="sourcePoint" />
            <mxPoint x="490" y="20" as="targetPoint" />
          </mxGeometry>
        </mxCell>
        <mxCell id="Ev4r6tBixr2I4QaoS0hP-8" value="Estado" style="ellipse;whiteSpace=wrap;html=1;align=center;" vertex="1" parent="WIyWlLk6GJQsqaUBKTNV-1">
          <mxGeometry x="160" y="20" width="100" height="40" as="geometry" />
        </mxCell>
        <mxCell id="Ev4r6tBixr2I4QaoS0hP-9" value="" style="endArrow=none;html=1;rounded=0;exitX=0.5;exitY=1;exitDx=0;exitDy=0;entryX=0.5;entryY=0;entryDx=0;entryDy=0;" edge="1" parent="WIyWlLk6GJQsqaUBKTNV-1" source="Ev4r6tBixr2I4QaoS0hP-8" target="Ev4r6tBixr2I4QaoS0hP-0">
          <mxGeometry relative="1" as="geometry">
            <mxPoint x="330" y="20" as="sourcePoint" />
            <mxPoint x="490" y="20" as="targetPoint" />
          </mxGeometry>
        </mxCell>
        <mxCell id="Ev4r6tBixr2I4QaoS0hP-10" value="Atraca" style="shape=rhombus;perimeter=rhombusPerimeter;whiteSpace=wrap;html=1;align=center;" vertex="1" parent="WIyWlLk6GJQsqaUBKTNV-1">
          <mxGeometry x="294" y="60" width="120" height="60" as="geometry" />
        </mxCell>
        <mxCell id="Ev4r6tBixr2I4QaoS0hP-13" value="" style="endArrow=none;html=1;rounded=0;exitX=1;exitY=0.5;exitDx=0;exitDy=0;entryX=0;entryY=0.5;entryDx=0;entryDy=0;" edge="1" parent="WIyWlLk6GJQsqaUBKTNV-1" source="Ev4r6tBixr2I4QaoS0hP-0" target="Ev4r6tBixr2I4QaoS0hP-10">
          <mxGeometry relative="1" as="geometry">
            <mxPoint x="330" y="20" as="sourcePoint" />
            <mxPoint x="490" y="20" as="targetPoint" />
          </mxGeometry>
        </mxCell>
        <mxCell id="Ev4r6tBixr2I4QaoS0hP-14" value="" style="endArrow=none;html=1;rounded=0;exitX=1;exitY=0.5;exitDx=0;exitDy=0;entryX=0;entryY=0.5;entryDx=0;entryDy=0;" edge="1" parent="WIyWlLk6GJQsqaUBKTNV-1" source="Ev4r6tBixr2I4QaoS0hP-10" target="Ev4r6tBixr2I4QaoS0hP-3">
          <mxGeometry relative="1" as="geometry">
            <mxPoint x="270" y="90" as="sourcePoint" />
            <mxPoint x="304" y="100" as="targetPoint" />
          </mxGeometry>
        </mxCell>
        <mxCell id="Ev4r6tBixr2I4QaoS0hP-17" value="B/L liberada" style="ellipse;whiteSpace=wrap;html=1;align=center;" vertex="1" parent="WIyWlLk6GJQsqaUBKTNV-1">
          <mxGeometry x="304" y="150" width="100" height="40" as="geometry" />
        </mxCell>
        <mxCell id="Ev4r6tBixr2I4QaoS0hP-19" value="" style="endArrow=none;html=1;rounded=0;exitX=0.5;exitY=1;exitDx=0;exitDy=0;entryX=0.5;entryY=0;entryDx=0;entryDy=0;" edge="1" parent="WIyWlLk6GJQsqaUBKTNV-1" source="Ev4r6tBixr2I4QaoS0hP-10" target="Ev4r6tBixr2I4QaoS0hP-17">
          <mxGeometry relative="1" as="geometry">
            <mxPoint x="280" y="100" as="sourcePoint" />
            <mxPoint x="314" y="110" as="targetPoint" />
          </mxGeometry>
        </mxCell>
      </root>
    </mxGraphModel>
  </diagram>
</mxfile>
